<svg height="422pt" viewBox="-67 0 422 422.3" width="422pt" xmlns="http://www.w3.org/2000/svg"><path d="m239.449219 0h-140.597657c-26.800781 0-48.601562 22-48.601562 49.101562v65.097657c0 5.523437 4.476562 10 10 10s10-4.476563 10-10v-65c-.070312-7.652344 2.902344-15.019531 8.265625-20.476563 5.367187-5.460937 12.679687-8.5625 20.335937-8.621094h140.699219c15.800781 0 28.597657 13.097657 28.597657 29.097657v324c.074218 7.652343-2.902344 15.019531-8.265626 20.480469-5.363281 5.457031-12.679687 8.558593-20.332031 8.621093h-140.699219c-15.800781 0-28.601562-13.101562-28.601562-29.101562v-64.597657c0-5.523437-4.476562-10-10-10s-10 4.476563-10 10v64.597657c0 27.101562 21.800781 49.101562 48.601562 49.101562h140.699219c26.800781 0 48.597657-22 48.597657-49.101562v-324c0-27.097657-21.796876-49.199219-48.699219-49.199219zm0 0" fill="#0635c9"/><path d="m179.148438 209.898438c0-.199219-.097657-.398438-.097657-.597657 0-.101562-.101562-.300781-.101562-.402343 0-.199219-.097657-.296876-.097657-.5 0-.097657-.101562-.296876-.101562-.398438-.101562-.199219-.101562-.300781-.199219-.5-.101562-.101562-.101562-.300781-.199219-.398438-.101562-.203124-.101562-.300781-.203124-.402343-.097657-.097657-.097657-.300781-.199219-.398438-.097657-.101562-.199219-.300781-.300781-.402343-.097657-.097657-.097657-.199219-.199219-.398438-.097657-.101562-.199219-.300781-.300781-.398438l-.296876-.300781-37-43.699219c-3.5625-4.226562-9.875-4.765624-14.101562-1.203124s-4.761719 9.875-1.199219 14.101562l23.097657 27.300781h-137.5c-5.519532 0-10 4.476563-10 10 0 5.523438 4.480468 10 10 10h137.5l-23.097657 27.300781c-3.527343 4.230469-2.988281 10.511719 1.210938 14.078126 4.195312 3.5625 10.484375 3.082031 14.089843-1.078126l37-43.703124.296876-.296876c.101562-.101562.203124-.300781.300781-.402343.125-.09375.199219-.242188.199219-.398438.101562-.101562.203124-.300781.300781-.402343.101562-.097657.101562-.296876.199219-.398438.101562-.101562.101562-.300781.203124-.398438.097657-.101562.097657-.300781.199219-.402343.097657-.199219.097657-.300781.199219-.5 0-.097657.101562-.300781.101562-.398438 0-.199219.097657-.300781.097657-.5 0-.101562.101562-.300781.101562-.402343 0-.199219.097657-.398438.097657-.597657v-.300781c.101562-.628906.101562-1.269531 0-1.898438zm0 0" fill="#1ae5be"/></svg>