<svg id="Layer_1" height="512" viewBox="0 0 512 512" width="512" xmlns="http://www.w3.org/2000/svg" data-name="Layer 1"><path d="m48 396.231v-358.6a21.633 21.633 0 0 1 21.64-21.631h-30a21.633 21.633 0 0 0 -21.64 21.631v358.6a21.642 21.642 0 0 0 21.64 21.64h30a21.642 21.642 0 0 1 -21.64-21.64z" fill="#d4e1f4"/><g fill="#0635c9"><path d="m108.787 170.3a6 6 0 0 0 0-12h-28.712a8.751 8.751 0 0 0 -8.743 8.74v57.35a8.752 8.752 0 0 0 8.743 8.74h57.425a8.752 8.752 0 0 0 8.743-8.74v-19.414a6 6 0 0 0 -12 0v16.154h-50.911v-50.83z"/><path d="m151.2 154.933a6 6 0 0 0 -8.45.774l-28.622 34.393-9.184-7.431a6 6 0 1 0 -7.544 9.331l11.04 8.932a9.512 9.512 0 0 0 12.71-.562l.241-.231 30.584-36.754a6 6 0 0 0 -.775-8.452z"/><path d="m71.332 351.558a8.752 8.752 0 0 0 8.743 8.741h57.425a8.752 8.752 0 0 0 8.743-8.741v-19.414a6 6 0 0 0 -12 0v16.156h-50.911v-50.832h25.455a6 6 0 0 0 0-12h-28.712a8.752 8.752 0 0 0 -8.743 8.74z"/><path d="m151.2 282.1a6 6 0 0 0 -8.45.775l-28.619 34.392-9.184-7.43a6 6 0 1 0 -7.548 9.328l11.04 8.932a9.513 9.513 0 0 0 12.71-.561l.241-.232 30.584-36.754a6 6 0 0 0 -.774-8.45z"/><path d="m472.364 10h-432.728a27.665 27.665 0 0 0 -27.636 27.632v358.6a27.656 27.656 0 0 0 27.594 27.631l233.467 1.651.085-12-233.51-1.652a15.651 15.651 0 0 1 -15.636-15.627v-285.854h464v285.854a15.651 15.651 0 0 1 -15.636 15.631c-.109 0-.218 0-.327.01l-30.266 1.651.653 11.981 30.113-1.642a27.666 27.666 0 0 0 27.463-27.631v-358.603a27.665 27.665 0 0 0 -27.636-27.632zm-448.364 88.381v-60.749a15.651 15.651 0 0 1 15.636-15.632h432.728a15.651 15.651 0 0 1 15.636 15.632v60.749z"/><path d="m62.2 36.439a23 23 0 1 0 23 23 23.024 23.024 0 0 0 -23-23zm0 33.992a11 11 0 1 1 11-11 11.011 11.011 0 0 1 -11 11z"/><path d="m122.833 36.439a23 23 0 1 0 23 23 23.024 23.024 0 0 0 -23-23zm0 33.992a11 11 0 1 1 11-11 11.011 11.011 0 0 1 -11 11z"/><path d="m183.467 36.439a23 23 0 1 0 23 23 23.024 23.024 0 0 0 -23-23zm0 33.992a11 11 0 1 1 11-11 11.01 11.01 0 0 1 -11 11z"/><path d="m467.933 52.3h-194.933a6 6 0 0 0 0 12h194.933a6 6 0 0 0 0-12z"/></g><path d="m207.975 174.482h234.125a6 6 0 0 0 0-12h-234.125a6 6 0 0 0 0 12z" fill="#1ae5be"/><path d="m207.975 224.193h234.125a6 6 0 0 0 0-12h-234.125a6 6 0 0 0 0 12z" fill="#1ae5be"/><path d="m442.1 289.65h-48.748a6 6 0 0 0 0 12h48.748a6 6 0 1 0 0-12z" fill="#1ae5be"/><path d="m207.975 301.65h76.039a6 6 0 0 0 0-12h-76.039a6 6 0 0 0 0 12z" fill="#1ae5be"/><path d="m207.975 351.362h20.493a6 6 0 1 0 0-12h-20.493a6 6 0 1 0 0 12z" fill="#1ae5be"/><path d="m332.1 249.332a23.318 23.318 0 0 0 -23.286 23.3v119.66l-.442-.64a51.476 51.476 0 0 0 -42.372-22.244 12.043 12.043 0 0 0 -10.99 16.963l1.011 2.262a200.746 200.746 0 0 1 11.268 32.367l12.734 50.04c.02.081.043.162.067.243a42.821 42.821 0 0 0 41.266 30.717h83.659a43.143 43.143 0 0 0 43.085-43.1v-67.723a21.741 21.741 0 0 0 -33.459-18.341 21.609 21.609 0 0 0 -30.925-9.553 20.858 20.858 0 0 0 -28.324-10.267v-80.387a23.318 23.318 0 0 0 -23.292-23.297zm23.542 122.482a8.95 8.95 0 1 1 17.9 0v6.8a21.7 21.7 0 0 0 -.234 3.163v23.552a6 6 0 0 0 6 6h.117s.077 0 .117 0a6 6 0 0 0 6-6v-25.642a9.628 9.628 0 0 1 19.031 2.086v29.775a6 6 0 0 0 12 0v-20.371a9.761 9.761 0 1 1 19.521 0v67.723a31.13 31.13 0 0 1 -31.079 31.1h-83.659a30.891 30.891 0 0 1 -29.736-22.051l-12.7-49.911a212.685 212.685 0 0 0 -11.938-34.3l-.982-2.33a39.484 39.484 0 0 1 32.5 17.06l10.318 14.949v22.283a6 6 0 0 0 12 0v-163.071a11.286 11.286 0 1 1 22.572 0v106.507a5.989 5.989 0 0 0 .256 1.73v24.459a6 6 0 0 0 12 0z" fill="#1ae5be"/></svg>